<?xml version="1.0" encoding="UTF-8" standalone="no"?>
<svg
   xmlns:dc="http://purl.org/dc/elements/1.1/"
   xmlns:cc="http://creativecommons.org/ns#"
   xmlns:rdf="http://www.w3.org/1999/02/22-rdf-syntax-ns#"
   xmlns:svg="http://www.w3.org/2000/svg"
   xmlns="http://www.w3.org/2000/svg"
   xmlns:sodipodi="http://sodipodi.sourceforge.net/DTD/sodipodi-0.dtd"
   xmlns:inkscape="http://www.inkscape.org/namespaces/inkscape"
   data-v-fde0c5aa=""
   viewBox="0 0 42.307137 43.488953"
   class="iconLeft"
   version="1.1"
   id="svg16"
   sodipodi:docname="favicon.svg"
   width="42.307137"
   height="43.488953"
   inkscape:version="1.0.2 (394de47547, 2021-03-26)">
  <metadata
     id="metadata20">
    <rdf:RDF>
      <cc:Work
         rdf:about="">
        <dc:format>image/svg+xml</dc:format>
        <dc:type
           rdf:resource="http://purl.org/dc/dcmitype/StillImage" />
        <dc:title></dc:title>
      </cc:Work>
    </rdf:RDF>
  </metadata>
  <sodipodi:namedview
     pagecolor="#ffffff"
     bordercolor="#666666"
     borderopacity="1"
     objecttolerance="10"
     gridtolerance="10"
     guidetolerance="10"
     inkscape:pageopacity="0"
     inkscape:pageshadow="2"
     inkscape:window-width="1920"
     inkscape:window-height="948"
     id="namedview18"
     showgrid="false"
     fit-margin-top="0"
     fit-margin-left="0"
     fit-margin-right="0"
     fit-margin-bottom="0"
     inkscape:zoom="2.6466667"
     inkscape:cx="110"
     inkscape:cy="21.744478"
     inkscape:window-x="0"
     inkscape:window-y="27"
     inkscape:window-maximized="1"
     inkscape:current-layer="svg16" />
  <!---->
  <defs
     data-v-fde0c5aa=""
     id="defs2">
    <!---->
  </defs>
  <defs
     data-v-fde0c5aa=""
     id="defs6">
    <!---->
  </defs>
  <defs
     data-v-fde0c5aa=""
     id="defs11">
    <!---->
  </defs>
  <g
     data-v-fde0c5aa=""
     id="cc86129f-3cad-4f07-892c-2b4757b64b67"
     stroke="none"
     fill="#938c8a"
     transform="matrix(0.50055768,0,0,0.50055768,-4.505019,-3.3071822)">
    <path
       d="m 23.706,41.28 c 7.597,1.779 17.713,2.866 28.828,2.866 17.174,0 31.972,-2.592 38.769,-6.329 L 93.52,23.004 c -7.598,2.574 -20.597,4.271 -35.363,4.271 -23.43,0 -42.423,-4.272 -42.423,-9.542 0,-5.271 18.993,-9.543 42.423,-9.543 10.436,0 19.985,0.849 27.375,2.254 C 77.71,8.111 65.489,6.607 51.742,6.607 28.137,6.607 9,11.036 9,16.501 c 0,0.134 0.021,0.267 0.043,0.4 H 9.039 l 2.959,19.773 c 1.459,1.119 3.61,2.157 6.315,3.082 -3.398,1.329 -5.356,2.877 -5.356,4.532 0,0.121 0.019,0.24 0.04,0.36 h -0.004 l 2.672,17.827 c 1.561,1.194 4,2.384 7.109,3.463 -4.18,1.34 -6.65,2.984 -6.65,4.763 0,0.11 0.018,0.22 0.036,0.33 H 16.156 L 18.6,85.218 c 4.674,3.578 17.887,8.27 33.47,8.27 14.18,0 25.871,-3.191 31.481,-6.271 L 85.91,73.423 c -6.273,2.122 -20.173,6.16 -32.365,6.16 -19.345,0 -31.862,-3.522 -31.862,-7.866 0,-1.61 2.161,-3.108 5.861,-4.355 6.696,1.72 15.312,2.907 24.73,2.907 15.511,0 28.876,-3.392 35.012,-6.762 L 89.29,48.569 c -6.861,2.321 -18.602,5.435 -31.937,5.435 -21.161,0 -38.315,-3.852 -38.315,-8.604 0.001,-1.494 1.693,-2.897 4.668,-4.12 z"
       id="path13" />
  </g>
  <!---->
</svg>
