<svg data-v-423bf9ae="" xmlns="http://www.w3.org/2000/svg" viewBox="0 0 340.83040536527375 60" class="font"><!----><!----><!----><g data-v-423bf9ae="" id="555b3f1e-71fa-4740-b1ad-0067f0d62a8e" fill="white" transform="matrix(4.222378595280017,0,0,4.222378595280017,-5.911334885295162,-5.911329098257653)"><path d="M4.34 1.40L4.34 1.40Q5.92 1.40 7.17 2.10L7.17 2.10L7.17 2.10Q8.41 2.80 9.11 4.04L9.11 4.04L9.11 4.04Q9.81 5.28 9.81 6.86L9.81 6.86L9.81 6.86Q9.81 8.44 9.11 9.69L9.11 9.69L9.11 9.69Q8.41 10.93 7.17 11.63L7.17 11.63L7.17 11.63Q5.92 12.33 4.34 12.33L4.34 12.33L1.82 12.33L1.82 12.33Q1.64 12.33 1.52 12.21L1.52 12.21L1.52 12.21Q1.40 12.10 1.40 11.91L1.40 11.91L1.40 1.82L1.40 1.82Q1.40 1.62 1.52 1.51L1.52 1.51L1.52 1.51Q1.64 1.40 1.82 1.40L1.82 1.40L4.34 1.40ZM4.34 11.58L4.34 11.58Q5.68 11.58 6.73 10.97L6.73 10.97L6.73 10.97Q7.78 10.36 8.38 9.28L8.38 9.28L8.38 9.28Q8.97 8.20 8.97 6.86L8.97 6.86L8.97 6.86Q8.97 5.52 8.38 4.44L8.38 4.44L8.38 4.44Q7.78 3.37 6.73 2.76L6.73 2.76L6.73 2.76Q5.68 2.16 4.34 2.16L4.34 2.16L2.24 2.16L2.24 11.58L4.34 11.58ZM15.41 4.59L15.41 4.59Q16.51 4.59 17.40 5.10L17.40 5.10L17.40 5.10Q18.30 5.61 18.81 6.51L18.81 6.51L18.81 6.51Q19.32 7.41 19.32 8.51L19.32 8.51L19.32 11.91L19.32 11.91Q19.32 12.10 19.21 12.21L19.21 12.21L19.21 12.21Q19.10 12.33 18.90 12.33L18.90 12.33L18.90 12.33Q18.72 12.33 18.60 12.21L18.60 12.21L18.60 12.21Q18.48 12.10 18.48 11.91L18.48 11.91L18.48 10.82L18.48 10.82Q18.02 11.56 17.21 11.99L17.21 11.99L17.21 11.99Q16.41 12.42 15.41 12.42L15.41 12.42L15.41 12.42Q14.31 12.42 13.41 11.91L13.41 11.91L13.41 11.91Q12.52 11.40 12.00 10.50L12.00 10.50L12.00 10.50Q11.49 9.60 11.49 8.51L11.49 8.51L11.49 8.51Q11.49 7.41 12.00 6.51L12.00 6.51L12.00 6.51Q12.52 5.61 13.41 5.10L13.41 5.10L13.41 5.10Q14.31 4.59 15.41 4.59L15.41 4.59ZM15.41 11.63L15.41 11.63Q16.28 11.63 16.98 11.23L16.98 11.23L16.98 11.23Q17.68 10.82 18.08 10.11L18.08 10.11L18.08 10.11Q18.48 9.39 18.48 8.51L18.48 8.51L18.48 8.51Q18.48 7.63 18.08 6.92L18.08 6.92L18.08 6.92Q17.68 6.20 16.98 5.79L16.98 5.79L16.98 5.79Q16.28 5.38 15.41 5.38L15.41 5.38L15.41 5.38Q14.55 5.38 13.85 5.79L13.85 5.79L13.85 5.79Q13.15 6.20 12.74 6.92L12.74 6.92L12.74 6.92Q12.33 7.63 12.33 8.51L12.33 8.51L12.33 8.51Q12.33 9.39 12.74 10.11L12.74 10.11L12.74 10.11Q13.15 10.82 13.85 11.23L13.85 11.23L13.85 11.23Q14.55 11.63 15.41 11.63L15.41 11.63ZM24.88 11.48L24.88 11.48Q25.07 11.48 25.19 11.60L25.19 11.60L25.19 11.60Q25.31 11.72 25.31 11.91L25.31 11.91L25.31 11.91Q25.31 12.10 25.19 12.21L25.19 12.21L25.19 12.21Q25.07 12.33 24.88 12.33L24.88 12.33L24.56 12.33L24.56 12.33Q23.79 12.33 23.18 11.98L23.18 11.98L23.18 11.98Q22.58 11.63 22.25 11.03L22.25 11.03L22.25 11.03Q21.91 10.42 21.91 9.65L21.91 9.65L21.91 5.71L20.82 5.71L20.82 5.71Q20.65 5.71 20.55 5.61L20.55 5.61L20.55 5.61Q20.44 5.50 20.44 5.33L20.44 5.33L20.44 5.33Q20.44 5.17 20.55 5.06L20.55 5.06L20.55 5.06Q20.65 4.96 20.82 4.96L20.82 4.96L21.91 4.96L21.91 2.67L21.91 2.67Q21.91 2.48 22.03 2.36L22.03 2.36L22.03 2.36Q22.15 2.24 22.33 2.24L22.33 2.24L22.33 2.24Q22.53 2.24 22.64 2.36L22.64 2.36L22.64 2.36Q22.76 2.48 22.76 2.67L22.76 2.67L22.76 4.96L24.61 4.96L24.61 4.96Q24.78 4.96 24.89 5.06L24.89 5.06L24.89 5.06Q24.99 5.17 24.99 5.33L24.99 5.33L24.99 5.33Q24.99 5.50 24.89 5.61L24.89 5.61L24.89 5.61Q24.78 5.71 24.61 5.71L24.61 5.71L22.76 5.71L22.76 9.65L22.76 9.65Q22.76 10.46 23.27 10.97L23.27 10.97L23.27 10.97Q23.77 11.48 24.57 11.48L24.57 11.48L24.88 11.48ZM30.56 4.59L30.56 4.59Q31.65 4.59 32.55 5.10L32.55 5.10L32.55 5.10Q33.45 5.61 33.96 6.51L33.96 6.51L33.96 6.51Q34.47 7.41 34.47 8.51L34.47 8.51L34.47 11.91L34.47 11.91Q34.47 12.10 34.36 12.21L34.36 12.21L34.36 12.21Q34.24 12.33 34.05 12.33L34.05 12.33L34.05 12.33Q33.87 12.33 33.75 12.21L33.75 12.21L33.75 12.21Q33.63 12.10 33.63 11.91L33.63 11.91L33.63 10.82L33.63 10.82Q33.17 11.56 32.36 11.99L32.36 11.99L32.36 11.99Q31.56 12.42 30.56 12.42L30.56 12.42L30.56 12.42Q29.46 12.42 28.56 11.91L28.56 11.91L28.56 11.91Q27.66 11.40 27.15 10.50L27.15 10.50L27.15 10.50Q26.64 9.60 26.64 8.51L26.64 8.51L26.64 8.51Q26.64 7.41 27.15 6.51L27.15 6.51L27.15 6.51Q27.66 5.61 28.56 5.10L28.56 5.10L28.56 5.10Q29.46 4.59 30.56 4.59L30.56 4.59ZM30.56 11.63L30.56 11.63Q31.43 11.63 32.13 11.23L32.13 11.23L32.13 11.23Q32.83 10.82 33.23 10.11L33.23 10.11L33.23 10.11Q33.63 9.39 33.63 8.51L33.63 8.51L33.63 8.51Q33.63 7.63 33.23 6.92L33.23 6.92L33.23 6.92Q32.83 6.20 32.13 5.79L32.13 5.79L32.13 5.79Q31.43 5.38 30.56 5.38L30.56 5.38L30.56 5.38Q29.69 5.38 28.99 5.79L28.99 5.79L28.99 5.79Q28.29 6.20 27.89 6.92L27.89 6.92L27.89 6.92Q27.48 7.63 27.48 8.51L27.48 8.51L27.48 8.51Q27.48 9.39 27.89 10.11L27.89 10.11L27.89 10.11Q28.29 10.82 28.99 11.23L28.99 11.23L28.99 11.23Q29.69 11.63 30.56 11.63L30.56 11.63ZM40.81 1.82L40.81 1.82Q40.81 1.64 40.93 1.52L40.93 1.52L40.93 1.52Q41.05 1.40 41.23 1.40L41.23 1.40L41.23 1.40Q41.41 1.40 41.53 1.52L41.53 1.52L41.53 1.52Q41.65 1.64 41.65 1.82L41.65 1.82L41.65 11.91L41.65 11.91Q41.65 12.10 41.53 12.21L41.53 12.21L41.53 12.21Q41.41 12.33 41.23 12.33L41.23 12.33L41.23 12.33Q41.05 12.33 40.93 12.21L40.93 12.21L40.93 12.21Q40.81 12.10 40.81 11.91L40.81 11.91L40.81 1.82ZM48.22 4.59L48.22 4.59Q49.32 4.59 50.22 5.10L50.22 5.10L50.22 5.10Q51.11 5.61 51.63 6.51L51.63 6.51L51.63 6.51Q52.14 7.41 52.14 8.51L52.14 8.51L52.14 8.51Q52.14 9.60 51.63 10.50L51.63 10.50L51.63 10.50Q51.11 11.40 50.22 11.91L50.22 11.91L50.22 11.91Q49.32 12.42 48.22 12.42L48.22 12.42L48.22 12.42Q47.22 12.42 46.42 11.99L46.42 11.99L46.42 11.99Q45.61 11.56 45.15 10.82L45.15 10.82L45.15 15.19L45.15 15.19Q45.15 15.39 45.04 15.50L45.04 15.50L45.04 15.50Q44.93 15.61 44.73 15.61L44.73 15.61L44.73 15.61Q44.55 15.61 44.43 15.50L44.43 15.50L44.43 15.50Q44.31 15.39 44.31 15.19L44.31 15.19L44.31 8.46L44.31 8.43L44.31 8.43Q44.32 7.35 44.84 6.47L44.84 6.47L44.84 6.47Q45.36 5.59 46.25 5.09L46.25 5.09L46.25 5.09Q47.14 4.59 48.22 4.59L48.22 4.59ZM48.22 11.63L48.22 11.63Q49.08 11.63 49.78 11.23L49.78 11.23L49.78 11.23Q50.48 10.82 50.89 10.11L50.89 10.11L50.89 10.11Q51.30 9.39 51.30 8.51L51.30 8.51L51.30 8.51Q51.30 7.63 50.89 6.92L50.89 6.92L50.89 6.92Q50.48 6.20 49.78 5.79L49.78 5.79L49.78 5.79Q49.08 5.38 48.22 5.38L48.22 5.38L48.22 5.38Q47.35 5.38 46.65 5.79L46.65 5.79L46.65 5.79Q45.95 6.20 45.55 6.92L45.55 6.92L45.55 6.92Q45.15 7.63 45.15 8.51L45.15 8.51L45.15 8.51Q45.15 9.39 45.55 10.11L45.55 10.11L45.55 10.11Q45.95 10.82 46.65 11.23L46.65 11.23L46.65 11.23Q47.35 11.63 48.22 11.63L48.22 11.63ZM56.85 4.59L56.85 4.59Q58.62 4.59 59.53 5.85L59.53 5.85L59.53 5.85Q59.61 5.95 59.61 6.09L59.61 6.09L59.61 6.09Q59.61 6.29 59.39 6.41L59.39 6.41L59.39 6.41Q59.25 6.47 59.18 6.47L59.18 6.47L59.18 6.47Q58.97 6.47 58.83 6.29L58.83 6.29L58.83 6.29Q58.11 5.38 56.83 5.38L56.83 5.38L56.83 5.38Q55.97 5.38 55.47 5.75L55.47 5.75L55.47 5.75Q54.96 6.12 54.96 6.66L54.96 6.66L54.96 6.66Q54.96 7.22 55.45 7.56L55.45 7.56L55.45 7.56Q55.93 7.90 57.06 8.06L57.06 8.06L57.06 8.06Q58.55 8.27 59.20 8.86L59.20 8.86L59.20 8.86Q59.85 9.44 59.85 10.26L59.85 10.26L59.85 10.26Q59.85 10.91 59.44 11.40L59.44 11.40L59.44 11.40Q59.02 11.89 58.34 12.15L58.34 12.15L58.34 12.15Q57.65 12.42 56.84 12.42L56.84 12.42L56.84 12.42Q56.03 12.42 55.26 12.13L55.26 12.13L55.26 12.13Q54.49 11.84 53.98 11.26L53.98 11.26L53.98 11.26Q53.89 11.14 53.89 11.00L53.89 11.00L53.89 11.00Q53.89 10.81 54.07 10.68L54.07 10.68L54.07 10.68Q54.15 10.61 54.31 10.61L54.31 10.61L54.31 10.61Q54.50 10.61 54.63 10.77L54.63 10.77L54.63 10.77Q55.33 11.62 56.88 11.62L56.88 11.62L56.88 11.62Q57.99 11.62 58.51 11.23L58.51 11.23L58.51 11.23Q59.04 10.84 59.04 10.22L59.04 10.22L59.04 10.22Q59.04 9.11 56.90 8.81L56.90 8.81L56.90 8.81Q55.54 8.61 54.84 8.06L54.84 8.06L54.84 8.06Q54.15 7.52 54.15 6.75L54.15 6.75L54.15 6.75Q54.15 5.73 54.90 5.16L54.90 5.16L54.90 5.16Q55.65 4.59 56.85 4.59L56.85 4.59ZM68.22 4.68L68.22 4.68Q68.42 4.68 68.53 4.79L68.53 4.79L68.53 4.79Q68.64 4.90 68.64 5.10L68.64 5.10L68.64 11.91L68.64 11.91Q68.64 12.10 68.53 12.21L68.53 12.21L68.53 12.21Q68.42 12.33 68.22 12.33L68.22 12.33L68.22 12.33Q68.04 12.33 67.92 12.21L67.92 12.21L67.92 12.21Q67.80 12.10 67.80 11.91L67.80 11.91L67.80 11.19L67.80 11.19Q67.33 11.77 66.64 12.10L66.64 12.10L66.64 12.10Q65.95 12.43 65.14 12.43L65.14 12.43L65.14 12.43Q64.12 12.43 63.31 12.01L63.31 12.01L63.31 12.01Q62.51 11.59 62.05 10.79L62.05 10.79L62.05 10.79Q61.60 9.98 61.60 8.86L61.60 8.86L61.60 5.10L61.60 5.10Q61.60 4.91 61.72 4.79L61.72 4.79L61.72 4.79Q61.84 4.68 62.02 4.68L62.02 4.68L62.02 4.68Q62.20 4.68 62.32 4.79L62.32 4.79L62.32 4.79Q62.44 4.91 62.44 5.10L62.44 5.10L62.44 8.86L62.44 8.86Q62.44 10.19 63.19 10.89L63.19 10.89L63.19 10.89Q63.94 11.59 65.14 11.59L65.14 11.59L65.14 11.59Q65.88 11.59 66.49 11.30L66.49 11.30L66.49 11.30Q67.10 11.02 67.45 10.51L67.45 10.51L67.45 10.51Q67.80 10.00 67.80 9.38L67.80 9.38L67.80 5.10L67.80 5.10Q67.80 4.90 67.92 4.79L67.92 4.79L67.92 4.79Q68.04 4.68 68.22 4.68L68.22 4.68ZM79.24 4.58L79.24 4.58Q80.08 4.58 80.74 5.00L80.74 5.00L80.74 5.00Q81.40 5.42 81.76 6.17L81.76 6.17L81.76 6.17Q82.12 6.92 82.12 7.87L82.12 7.87L82.12 11.91L82.12 11.91Q82.12 12.10 82.01 12.21L82.01 12.21L82.01 12.21Q81.90 12.33 81.70 12.33L81.70 12.33L81.70 12.33Q81.52 12.33 81.40 12.21L81.40 12.21L81.40 12.21Q81.28 12.10 81.28 11.91L81.28 11.91L81.28 7.87L81.28 7.87Q81.28 6.79 80.71 6.10L80.71 6.10L80.71 6.10Q80.14 5.42 79.24 5.42L79.24 5.42L79.24 5.42Q78.26 5.42 77.66 6.06L77.66 6.06L77.66 6.06Q77.06 6.71 77.08 7.77L77.08 7.77L77.08 7.87L77.08 11.91L77.08 11.91Q77.08 12.10 76.97 12.21L76.97 12.21L76.97 12.21Q76.86 12.33 76.66 12.33L76.66 12.33L76.66 12.33Q76.48 12.33 76.36 12.21L76.36 12.21L76.36 12.21Q76.24 12.10 76.24 11.91L76.24 11.91L76.24 7.87L76.24 7.87Q76.24 6.79 75.67 6.10L75.67 6.10L75.67 6.10Q75.10 5.42 74.20 5.42L74.20 5.42L74.20 5.42Q73.23 5.42 72.62 6.03L72.62 6.03L72.62 6.03Q72.00 6.65 72.00 7.63L72.00 7.63L72.00 11.91L72.00 11.91Q72.00 12.10 71.89 12.21L71.89 12.21L71.89 12.21Q71.78 12.33 71.58 12.33L71.58 12.33L71.58 12.33Q71.40 12.33 71.28 12.21L71.28 12.21L71.28 12.21Q71.16 12.10 71.16 11.91L71.16 11.91L71.16 5.10L71.16 5.10Q71.16 4.90 71.28 4.79L71.28 4.79L71.28 4.79Q71.40 4.68 71.58 4.68L71.58 4.68L71.58 4.68Q71.78 4.68 71.89 4.79L71.89 4.79L71.89 4.79Q72.00 4.90 72.00 5.10L72.00 5.10L72.00 5.64L72.00 5.64Q72.39 5.14 72.97 4.86L72.97 4.86L72.97 4.86Q73.54 4.58 74.20 4.58L74.20 4.58L74.20 4.58Q75.01 4.58 75.66 4.98L75.66 4.98L75.66 4.98Q76.30 5.38 76.68 6.08L76.68 6.08L76.68 6.08Q77.06 5.38 77.73 4.98L77.73 4.98L77.73 4.98Q78.40 4.58 79.24 4.58L79.24 4.58Z"></path></g><!----><!----></svg>